<?xml version="1.0" encoding="UTF-8" standalone="no"?>
<svg
   xmlns:dc="http://purl.org/dc/elements/1.1/"
   xmlns:cc="http://creativecommons.org/ns#"
   xmlns:rdf="http://www.w3.org/1999/02/22-rdf-syntax-ns#"
   xmlns:svg="http://www.w3.org/2000/svg"
   xmlns="http://www.w3.org/2000/svg"
   viewBox="0 0 470.83066 471.02267"
   height="471.02267"
   width="470.83066"
   xml:space="preserve"
   id="svg2"
   version="1.1"><metadata
     id="metadata8"><rdf:RDF><cc:Work
         rdf:about=""><dc:format>image/svg+xml</dc:format><dc:type
           rdf:resource="http://purl.org/dc/dcmitype/StillImage" /></cc:Work></rdf:RDF></metadata><defs
     id="defs6"><clipPath
       id="clipPath24"
       clipPathUnits="userSpaceOnUse"><path
         id="path22"
         d="M 0,353.267 H 353.123 V 0 H 0 Z" /></clipPath></defs><g
     transform="matrix(1.3333333,0,0,-1.3333333,0,471.02267)"
     id="g10"><g
       transform="translate(100.7568,203.7339)"
       id="g12"><path
         id="path14"
         style="fill:#ffffff;fill-opacity:1;fill-rule:nonzero;stroke:none"
         d="M 0,0 H 0.228 L 0,0.058 Z" /></g><path
       id="path16"
       style="fill:#413659;fill-opacity:1;fill-rule:nonzero;stroke:none"
       d="M 0,0.144 H 353.123 V 353.267 H 0 Z" /><g
       id="g18"><g
         clip-path="url(#clipPath24)"
         id="g20"><g
           transform="translate(174.9198,79.9475)"
           id="g26"><path
             id="path28"
             style="fill:#ffffff;fill-opacity:1;fill-rule:nonzero;stroke:none"
             d="m 0,0 c 6.046,0 10.365,4.196 10.365,10.365 0,6.047 -4.319,10.242 -10.365,10.242 -5.923,0 -10.241,-4.195 -10.241,-10.242 C -10.241,4.196 -5.923,0 0,0" /></g><g
           transform="translate(181.7065,110.5492)"
           id="g30"><path
             id="path32"
             style="fill:#ffffff;fill-opacity:1;fill-rule:nonzero;stroke:none"
             d="M 0,0 3.702,34.303 V 56.267 H -16.535 V 34.303 L -12.833,0 Z" /></g><g
           transform="translate(230.4016,125.7841)"
           id="g34"><path
             id="path36"
             style="fill:#ffffff;fill-opacity:1;fill-rule:nonzero;stroke:none"
             d="m 0,0 c -1.292,-4.737 -10.273,-34.71 -35.25,-55.146 24.808,20.432 33.737,50.243 35.024,54.966 v 56.748 h -109.783 v 0 H -0.486 V -0.18 c -1.58,-5.794 -14.666,-49.338 -54.457,-67.011 -0.026,0.013 -0.052,0.026 -0.079,0.037 -0.044,-0.019 -0.086,-0.041 -0.13,-0.06 -39.915,17.447 -53.154,60.896 -54.857,67.089 v 56.693 h -0.035 v 0.18 h 0.26 v 0.001 L 0,56.749 Z m -20.507,69.426 c -2.238,2.754 -4.584,5.22 -7.013,7.415 -0.159,0.481 -0.263,0.977 -0.263,1.488 v 8.213 l 4.55,5.351 h 0.012 c 7.198,0 13.566,4.664 15.737,11.527 l 5.469,17.286 c 0.105,0.332 -0.143,0.671 -0.492,0.671 h -28.488 c -2.626,0 -4.755,2.129 -4.755,4.755 v 0.314 l 20.967,-0.001 -0.001,0.001 h 6.454 c 0.451,0 0.685,0.537 0.378,0.867 l -10.259,11.042 c -1.259,1.354 -2.452,2.767 -3.517,4.278 -3.758,5.329 -9.433,10.521 -17.919,12.988 -0.434,0.13 -0.879,0.232 -1.32,0.345 -0.353,0.087 -0.705,0.176 -1.067,0.254 -0.619,0.137 -1.243,0.258 -1.876,0.361 -0.179,0.029 -0.364,0.05 -0.545,0.077 -1.631,0.238 -3.29,0.398 -4.993,0.398 -6.109,0 -11.797,-1.62 -16.653,-4.382 -6.05,20.86 -18.655,21.09 -18.655,21.09 -8.926,1.148 -16.055,-3.374 -19.71,-11.481 -2.013,-4.465 -2.666,-9.175 -3.337,-13.966 -1.821,-13.021 -6.049,-19.859 -8.881,-23.108 -1.754,-2.013 -4.215,-3.378 -6.883,-3.439 -11.404,-0.26 -13.769,20.313 -13.769,20.313 -9.355,-19.828 -6.773,-32.089 -1.29,-39.543 0.311,-0.423 0.632,-0.83 0.96,-1.223 6.106,-7.307 16.332,-10.026 25.311,-6.854 6.888,2.432 12.277,7.273 15.113,13.769 4.616,10.57 2.254,22.015 3.479,33.081 0.838,7.562 4.81,20.68 14.908,15.163 3.083,-1.685 5.632,-4.528 7.585,-7.454 -6.254,-5.434 -10.187,-13.15 -10.187,-21.739 0,-5.946 1.895,-11.472 5.124,-16.121 l 5.332,-9.857 c 0.752,-1.389 1.145,-2.944 1.145,-4.524 v -2.573 c -11.268,0.874 -19.319,-0.747 -19.319,-0.747 0,0 10.719,-12.648 3.64,-24.035 H -123.54 V -1.659 l 0.438,-1.604 c 2.506,-9.192 17.294,-56.05 62.45,-75.79 l 5.76,-2.518 5.761,2.518 c 45.07,19.699 59.898,66.462 62.436,75.746 v 58.144 2.945 l 0.224,0.248 v 11.396 z" /></g></g></g></g></svg>